<svg xmlns="http://www.w3.org/2000/svg" width="20" height="19.999" viewBox="0 0 20 19.999"><defs><style>.a{fill:#3d8eed;}</style></defs><path class="a" d="M20.523,2.667H4.81A2.143,2.143,0,0,0,2.667,4.81h0V20.523A2.143,2.143,0,0,0,4.81,22.666h6.127v-6.8H8.124v-3.2h2.812V10.227c0-2.774,1.651-4.307,4.182-4.307a17.054,17.054,0,0,1,2.479.216V8.859H16.2a1.6,1.6,0,0,0-1.8,1.729v2.078h3.07l-.491,3.2H14.4v6.8h6.127a2.143,2.143,0,0,0,2.143-2.143h0V4.81a2.143,2.143,0,0,0-2.143-2.143h0Z" transform="translate(-2.667 -2.667)"/></svg>