<svg xmlns="http://www.w3.org/2000/svg" width="20" height="19.996" viewBox="0 0 20 19.996"><defs><style>.a{fill:#3d8eed;}</style></defs><path class="a" d="M12.668,7.541a5.126,5.126,0,1,0,5.126,5.126,5.118,5.118,0,0,0-5.126-5.126Zm0,8.459A3.333,3.333,0,1,1,16,12.667,3.339,3.339,0,0,1,12.668,16ZM19.2,7.331a1.2,1.2,0,1,1-1.2-1.2A1.193,1.193,0,0,1,19.2,7.331Zm3.4,1.213A5.914,5.914,0,0,0,20.98,4.355,5.958,5.958,0,0,0,16.791,2.74c-1.651-.094-6.6-.094-8.25,0A5.945,5.945,0,0,0,4.352,4.351,5.942,5.942,0,0,0,2.737,8.54c-.094,1.651-.094,6.6,0,8.25a5.914,5.914,0,0,0,1.615,4.189,5.969,5.969,0,0,0,4.189,1.615c1.651.094,6.6.094,8.25,0a5.914,5.914,0,0,0,4.189-1.615A5.958,5.958,0,0,0,22.6,16.79c.094-1.651.094-6.595,0-8.245ZM20.463,18.561a3.373,3.373,0,0,1-1.9,1.9c-1.316.522-4.439.4-5.894.4s-4.582.116-5.894-.4a3.373,3.373,0,0,1-1.9-1.9c-.522-1.316-.4-4.439-.4-5.894s-.116-4.582.4-5.894a3.373,3.373,0,0,1,1.9-1.9c1.316-.522,4.439-.4,5.894-.4s4.582-.116,5.894.4a3.373,3.373,0,0,1,1.9,1.9c.522,1.316.4,4.439.4,5.894S20.985,17.249,20.463,18.561Z" transform="translate(-2.666 -2.669)"/></svg>