<svg xmlns="http://www.w3.org/2000/svg" width="20" height="20" viewBox="0 0 20 20"><defs><style>.a{fill:#3d8eed;}</style></defs><path class="a" d="M20.524,2.667H4.81A2.144,2.144,0,0,0,2.667,4.81V20.524A2.144,2.144,0,0,0,4.81,22.667H20.524a2.144,2.144,0,0,0,2.143-2.143V4.81A2.144,2.144,0,0,0,20.524,2.667ZM18.341,9.756c.009.125.009.254.009.38A8.336,8.336,0,0,1,5.524,17.154a6.113,6.113,0,0,0,.705.036,5.869,5.869,0,0,0,3.634-1.25,2.933,2.933,0,0,1-2.737-2.031,3.168,3.168,0,0,0,1.322-.053A2.928,2.928,0,0,1,6.1,10.98v-.036a2.925,2.925,0,0,0,1.322.371,2.923,2.923,0,0,1-1.3-2.433V8.876h0a2.885,2.885,0,0,1,.4-1.478,8.313,8.313,0,0,0,6.036,3.062,2.934,2.934,0,0,1,5-2.675,5.749,5.749,0,0,0,1.857-.705,2.922,2.922,0,0,1-1.286,1.612,5.828,5.828,0,0,0,1.688-.455,6.167,6.167,0,0,1-1.469,1.518Z" transform="translate(-2.667 -2.667)"/></svg>